<svg width="48" height="32" viewBox="0 0 48 32" fill="none" xmlns="http://www.w3.org/2000/svg">
<path d="M2.93396 9.24989C2.93396 9.24989 2.48831 30.25 3.77089 30.25C5.05347 30.25 43.1428 30.25 44.3619 30.25C45.581 30.25 45.1988 9.24989 45.1988 9.24989M2.93396 9.24989H45.1988M2.93396 9.24989L1.67857 8.72489C1.67857 8.72489 0.714285 2.40385 1.67857 1.86835C2.64286 1.33285 45.5537 0.797336 46.0358 1.86835C46.5178 2.93936 46.0358 8.72489 46.0358 8.72489L45.1988 9.24989" stroke="#265DB6" stroke-width="2.5"/>
<path d="M28.4684 15.25H19.0316C17.6161 16.45 18.4418 17.75 19.0316 18.25H28.4684C29.884 17.05 29.0582 15.75 28.4684 15.25Z" stroke="#265DB6" stroke-width="2.5"/>
</svg>
