<svg fill="none" height="36" viewBox="0 0 44 36" width="44" xmlns="http://www.w3.org/2000/svg"><g stroke="#265db6" stroke-width="2.5"><path d="m3 1.25h15c.9665 0 1.75.7835 1.75 1.75v11c0 .9665-.7835 1.75-1.75 1.75h-15c-.9665 0-1.75-.7835-1.75-1.75v-11c0-.9665.7835-1.75 1.75-1.75z"/><path d="m26 20.25h15c.9665 0 1.75.7835 1.75 1.75v11c0 .9665-.7835 1.75-1.75 1.75h-15c-.9665 0-1.75-.7835-1.75-1.75v-11c0-.9665.7835-1.75 1.75-1.75z"/><path d="m3 20.25h15c.9665 0 1.75.7835 1.75 1.75v11c0 .9665-.7835 1.75-1.75 1.75h-15c-.9665 0-1.75-.7835-1.75-1.75v-11c0-.9665.7835-1.75 1.75-1.75z"/><path d="m26 1.25h15c.9665 0 1.75.7835 1.75 1.75v11c0 .9665-.7835 1.75-1.75 1.75h-15c-.9665 0-1.75-.7835-1.75-1.75v-11c0-.9665.7835-1.75 1.75-1.75z"/></g></svg>